<svg width="20" height="20" viewBox="0 0 20 20" fill="none" xmlns="http://www.w3.org/2000/svg">
<path fill-rule="evenodd" clip-rule="evenodd" d="M3.46967 17.0303C3.32902 16.8897 3.25 16.6989 3.25 16.5L3.25 14.5C3.25 14.0858 3.58579 13.75 4 13.75C4.41421 13.75 4.75 14.0858 4.75 14.5L4.75 15.75L15.25 15.75L15.25 14.5C15.25 14.0858 15.5858 13.75 16 13.75C16.4142 13.75 16.75 14.0858 16.75 14.5L16.75 16.5C16.75 16.9142 16.4142 17.25 16 17.25L4 17.25C3.80109 17.25 3.61032 17.171 3.46967 17.0303Z" fill="#8D9299"/>
<path fill-rule="evenodd" clip-rule="evenodd" d="M10 13.75C9.58579 13.75 9.25 13.4142 9.25 13L9.25 5.8508L6.53842 8.64711C6.25007 8.94447 5.77525 8.95178 5.47789 8.66343C5.18053 8.37507 5.17322 7.90025 5.46157 7.60289L9.46157 3.47789C9.60283 3.33222 9.79709 3.25 10 3.25C10.2029 3.25 10.3972 3.33222 10.5384 3.47789L14.5384 7.60289C14.8268 7.90025 14.8195 8.37507 14.5221 8.66342C14.2247 8.95178 13.7499 8.94447 13.4616 8.64711L10.75 5.8508L10.75 13C10.75 13.4142 10.4142 13.75 10 13.75Z" fill="#8D9299"/>
</svg>
