<svg width="28" height="28" viewBox="0 0 28 28" fill="none" xmlns="http://www.w3.org/2000/svg">
<g id="icon-before-home">
<path id="Vector (Stroke)" fill-rule="evenodd" clip-rule="evenodd" d="M15.3592 5.27111C14.538 4.72249 13.462 4.72249 12.6408 5.27111C12.6175 5.28664 12.5923 5.30363 12.5655 5.32175C12.4155 5.42304 12.2131 5.55962 12.0023 5.67343L4.88105 9.51729C4.72616 9.60089 4.63806 9.66412 4.58339 9.7178C4.11657 10.1761 3.85 10.8053 3.85 11.4659V21.7C3.85 23.0531 4.9469 24.15 6.3 24.15H21.7C23.0531 24.15 24.15 23.0531 24.15 21.7V11.4659C24.15 10.8053 23.8834 10.1761 23.4166 9.7178C23.3619 9.66412 23.2738 9.60089 23.119 9.51729L15.9977 5.67343C15.7869 5.55962 15.5845 5.42304 15.4345 5.32176C15.4077 5.30364 15.3825 5.28664 15.3592 5.27111ZM11.4742 3.52491C13.0016 2.50455 14.9984 2.50455 16.5258 3.52491C16.5635 3.55013 16.5984 3.57359 16.6311 3.59555C16.7807 3.6961 16.8832 3.76501 16.9952 3.82545L24.1164 7.66931C24.3465 7.79351 24.6303 7.96648 24.8878 8.2193C25.7549 9.07059 26.25 10.239 26.25 11.4659V21.7C26.25 24.2129 24.2129 26.25 21.7 26.25H6.3C3.7871 26.25 1.75 24.2129 1.75 21.7V11.4659C1.75 10.239 2.24509 9.07059 3.11217 8.2193C3.36968 7.96648 3.65346 7.79351 3.88356 7.66931L11.0048 3.82545C11.1168 3.76501 11.2193 3.6961 11.3689 3.59555C11.4016 3.57359 11.4365 3.55013 11.4742 3.52491ZM13.3425 9.05754C13.7525 9.46759 13.7525 10.1324 13.3425 10.5425L12.3349 11.55H16.1C18.6129 11.55 20.65 13.5871 20.65 16.1C20.65 18.6129 18.6129 20.65 16.1 20.65H9.1C8.5201 20.65 8.05 20.1799 8.05 19.6C8.05 19.0201 8.5201 18.55 9.1 18.55H16.1C17.4531 18.55 18.55 17.4531 18.55 16.1C18.55 14.7469 17.4531 13.65 16.1 13.65H12.3349L13.3425 14.6575C13.7525 15.0676 13.7525 15.7324 13.3425 16.1425C12.9324 16.5525 12.2676 16.5525 11.8575 16.1425L9.05754 13.3425C8.86062 13.1455 8.75 12.8785 8.75 12.6C8.75 12.3215 8.86062 12.0544 9.05754 11.8575L11.8575 9.05754C12.2676 8.64749 12.9324 8.64749 13.3425 9.05754Z" fill="#8D9299"/>
</g>
</svg>
