<svg width="24" height="24" viewBox="0 0 24 24" fill="none" xmlns="http://www.w3.org/2000/svg">
<path d="M12.0001 3.8999C12.2648 3.8999 12.5027 4.01415 12.6674 4.19601L18.6661 10.7945C19.0004 11.1623 18.9733 11.7315 18.6055 12.0658C18.2377 12.4002 17.6685 12.3731 17.3342 12.0053L12.9001 7.12784V19.1999C12.9001 19.697 12.4972 20.0999 12.0001 20.0999C11.503 20.0999 11.1001 19.697 11.1001 19.1999V7.12786L6.66605 12.0053C6.33169 12.3731 5.76249 12.4002 5.3947 12.0658C5.02691 11.7315 4.9998 11.1623 5.33416 10.7945L11.331 4.19801C11.4957 4.01498 11.7345 3.8999 12.0001 3.8999C12.0001 3.8999 12.0001 3.8999 12.0001 3.8999Z" fill="#8D9299"/>
</svg>
