<svg width="24" height="24" viewBox="0 0 24 24" fill="none" xmlns="http://www.w3.org/2000/svg">
<path fill-rule="evenodd" clip-rule="evenodd" d="M4.2 4.5C3.70294 4.5 3.3 4.90294 3.3 5.4V18.6C3.3 19.4284 3.97157 20.1 4.8 20.1H19.2C20.0284 20.1 20.7 19.4284 20.7 18.6V7.8C20.7 7.30294 20.2971 6.9 19.8 6.9H13.5C12.6502 6.9 11.8499 6.49987 11.34 5.82L10.62 4.86C10.45 4.63337 10.1833 4.5 9.9 4.5H4.2ZM1.5 5.4C1.5 3.90883 2.70883 2.7 4.2 2.7H9.9C10.7498 2.7 11.5501 3.10012 12.06 3.78L12.78 4.74C12.95 4.96662 13.2167 5.1 13.5 5.1H19.8C21.2912 5.1 22.5 6.30883 22.5 7.8V18.6C22.5 20.4225 21.0225 21.9 19.2 21.9H4.8C2.97746 21.9 1.5 20.4225 1.5 18.6V5.4Z" fill="#8D9299"/>
<path fill-rule="evenodd" clip-rule="evenodd" d="M11.9999 17.1C11.5028 17.1 11.0999 16.6971 11.0999 16.2L11.0999 12.2459L9.60805 13.6134C9.24164 13.9493 8.67233 13.9246 8.33646 13.5582C8.00058 13.1918 8.02534 12.6224 8.39174 12.2866L11.3917 9.53657C11.7358 9.22115 12.264 9.22115 12.608 9.53657L15.608 12.2866C15.9745 12.6224 15.9992 13.1918 15.6633 13.5582C15.3275 13.9246 14.7582 13.9493 14.3917 13.6134L12.8999 12.2459L12.8999 16.2C12.8999 16.6971 12.497 17.1 11.9999 17.1Z" fill="#8D9299"/>
</svg>
