<svg width="100" height="100" viewBox="0 0 100 100" fill="none" xmlns="http://www.w3.org/2000/svg">
<g clip-path="url(#clip0_107_1941)">
<rect width="100" height="100" rx="16" fill="#2B3444"/>
<rect width="100" height="100" fill="#2B3444"/>
<path d="M78.3486 50C76.9095 50 75.7445 51.1449 75.7445 52.5591C75.7445 58.8275 70.5529 63.9295 64.1744 63.9295C57.7959 63.9295 52.6043 58.8275 52.6043 52.5591C52.6043 51.1449 51.4393 50 50.0002 50C48.5612 50 47.3962 51.1449 47.3962 52.5591C47.3962 58.8275 42.2046 63.9295 35.8261 63.9295C29.4475 63.9295 24.2559 58.8275 24.2559 52.5591C24.2559 51.1449 23.091 50 21.6519 50C20.2128 50 19.0479 51.1449 19.0479 52.5591C19.0479 61.6505 26.5749 69.0476 35.8261 69.0476C41.7852 69.0476 47.0234 65.9767 50.0002 61.365C52.9771 65.9767 58.218 69.0476 64.1744 69.0476C73.4256 69.0476 80.9526 61.6505 80.9526 52.5591C80.9526 51.1449 79.7876 50 78.3486 50Z" fill="white"/>
<path d="M35.7141 42.8571C38.344 42.8571 40.476 40.7251 40.476 38.0952C40.476 35.4653 38.344 33.3333 35.7141 33.3333C33.0841 33.3333 30.9521 35.4653 30.9521 38.0952C30.9521 40.7251 33.0841 42.8571 35.7141 42.8571Z" fill="white"/>
<path d="M64.2853 42.8571C66.9153 42.8571 69.0472 40.7251 69.0472 38.0952C69.0472 35.4653 66.9153 33.3333 64.2853 33.3333C61.6554 33.3333 59.5234 35.4653 59.5234 38.0952C59.5234 40.7251 61.6554 42.8571 64.2853 42.8571Z" fill="white"/>
</g>
<defs>
<clipPath id="clip0_107_1941">
<rect width="100" height="100" rx="16" fill="white"/>
</clipPath>
</defs>
</svg>
