<svg width="32" height="32" viewBox="0 0 32 32" fill="none" xmlns="http://www.w3.org/2000/svg">
<rect width="32" height="32" rx="5" fill="#2E6FF2"/>
<path d="M23.6798 11.52V17.8797C23.6743 18.9919 23.2148 20.057 22.4014 20.8435C21.5879 21.63 20.4862 22.0744 19.3357 22.08C17.9802 22.08 16.8708 21.5783 16.0076 20.575C15.1346 21.5789 14.0201 22.0806 12.664 22.08C11.5135 22.0744 10.4117 21.63 9.59829 20.8435C8.78483 20.057 8.32538 18.9919 8.31982 17.8797V11.52H10.353V17.8797C10.3543 18.4718 10.5981 19.0393 11.0313 19.458C11.4644 19.8767 12.0515 20.1125 12.664 20.1136C12.9668 20.1186 13.2674 20.0644 13.548 19.9544C13.8287 19.8445 14.0835 19.6809 14.2972 19.4736C14.516 19.2685 14.6901 19.0232 14.8092 18.752C14.9283 18.4809 14.99 18.1894 14.9906 17.8948V11.52H17.0247V17.8948C17.0201 18.1887 17.0778 18.4805 17.1944 18.752C17.311 19.0236 17.4839 19.2692 17.7025 19.4736C17.9162 19.6809 18.171 19.8445 18.4516 19.9544C18.7322 20.0644 19.0329 20.1186 19.3357 20.1136C19.9483 20.1129 20.5357 19.8773 20.9689 19.4585C21.4022 19.0397 21.6459 18.4719 21.6466 17.8797V11.52H23.6798Z" fill="#F3F5FA"/>
</svg>
