<svg width="272" height="34" viewBox="0 0 272 34" fill="none" xmlns="http://www.w3.org/2000/svg">
<path d="M46.19 13.1401C45.19 13.1401 44.38 13.9501 44.38 14.9501C44.38 19.3801 40.77 22.9901 36.34 22.9901C31.91 22.9901 28.3 19.3801 28.3 14.9501C28.3 13.9501 27.49 13.1401 26.49 13.1401C25.49 13.1401 24.68 13.9501 24.68 14.9501C24.68 19.3801 21.07 22.9901 16.64 22.9901C12.21 22.9901 8.62 19.3801 8.62 14.9501C8.62 13.9501 7.81 13.1401 6.81 13.1401C5.81 13.1401 5 13.9501 5 14.9501C5 21.3801 10.23 26.6101 16.66 26.6101C20.8 26.6101 24.44 24.4401 26.51 21.1801C28.58 24.4401 32.22 26.6101 36.36 26.6101C42.79 26.6101 48.02 21.3801 48.02 14.9501C48.02 13.9501 47.21 13.1401 46.21 13.1401H46.19Z" fill="#8D9299"/>
<path d="M92.0998 26.5999C91.0998 26.5999 90.2898 25.7899 90.2898 24.7899C90.2898 20.3599 86.6798 16.7499 82.2498 16.7499C77.8198 16.7499 74.2098 20.3599 74.2098 24.7899C74.2098 25.7899 73.3998 26.5999 72.3998 26.5999C71.3998 26.5999 70.5898 25.7899 70.5898 24.7899C70.5898 18.3599 75.8198 13.1299 82.2498 13.1299C88.6798 13.1299 93.9099 18.3599 93.9099 24.7899C93.9099 25.7899 93.0998 26.5999 92.0998 26.5999Z" fill="#8D9299"/>
<path d="M119.51 26.5999C119.05 26.5999 118.58 26.4199 118.23 26.0699L108.38 16.2199C107.67 15.5099 107.67 14.3699 108.38 13.6599C109.09 12.9499 110.23 12.9499 110.94 13.6599L119.51 22.2299L128.08 13.6599C128.79 12.9499 129.93 12.9499 130.64 13.6599C131.35 14.3699 131.35 15.5099 130.64 16.2199L120.79 26.0699C120.44 26.4199 119.97 26.5999 119.51 26.5999Z" fill="#8D9299"/>
<path d="M59.4501 26.96C58.4901 26.96 57.5201 26.77 56.6001 26.4C54.7301 25.64 53.2601 24.19 52.4701 22.33C51.6801 20.47 51.6701 18.41 52.4301 16.53C53.1901 14.66 54.6401 13.19 56.5001 12.4C58.3601 11.61 60.4201 11.6 62.3001 12.36C64.1701 13.12 65.6401 14.57 66.4301 16.43C66.8001 17.3 66.39 18.31 65.52 18.68L56.6401 22.43C57.0001 22.76 57.4201 23.03 57.8901 23.22C58.9201 23.64 60.0401 23.63 61.0601 23.2C62.0001 22.8 62.7601 22.07 63.2001 21.15C63.6001 20.29 64.6201 19.93 65.4801 20.33C66.3401 20.73 66.7001 21.75 66.3001 22.61C65.5101 24.3 64.1201 25.63 62.4001 26.36C61.4501 26.76 60.4501 26.96 59.4501 26.96ZM59.4501 15.23C58.9001 15.23 58.3601 15.34 57.8401 15.56C56.8201 15.99 56.0301 16.79 55.6101 17.82C55.4201 18.29 55.3201 18.78 55.3101 19.27L62.2701 16.33C61.9101 16 61.4901 15.73 61.0201 15.54C60.5201 15.34 59.9901 15.23 59.4601 15.23H59.4501Z" fill="#8D9299"/>
<path d="M101.05 26.6001C100.05 26.6001 99.2402 25.7901 99.2402 24.7901V14.6601C99.2402 13.6601 100.05 12.8501 101.05 12.8501C102.05 12.8501 102.86 13.6601 102.86 14.6601V24.8001C102.86 25.8001 102.05 26.6101 101.05 26.6101V26.6001Z" fill="#8D9299"/>
<path d="M101.05 10.88C102.398 10.88 103.49 9.78757 103.49 8.44C103.49 7.09243 102.398 6 101.05 6C99.7023 6 98.6099 7.09243 98.6099 8.44C98.6099 9.78757 99.7023 10.88 101.05 10.88Z" fill="#8D9299"/>
<path d="M133.61 26.6C134.958 26.6 136.05 25.5076 136.05 24.16C136.05 22.8124 134.958 21.72 133.61 21.72C132.262 21.72 131.17 22.8124 131.17 24.16C131.17 25.5076 132.262 26.6 133.61 26.6Z" fill="#8D9299"/>
<path d="M144.245 26.2481V12.0081H146.053V14.1829C147.003 12.9409 148.723 11.6721 151.173 11.6721C152.803 11.6721 154.226 12.2904 155.239 13.3947C156.25 14.4968 156.829 16.0564 156.829 17.9041V26.2481H155.021V18.0721C155.021 16.4949 154.607 15.3361 153.918 14.5755C153.235 13.8202 152.235 13.4081 150.957 13.4081C149.611 13.4081 148.388 14.0924 147.492 15.1322C146.594 16.1739 146.053 17.5411 146.053 18.8401V26.2481H144.245Z" fill="#8D9299"/>
<path fill-rule="evenodd" clip-rule="evenodd" d="M167.137 11.6721C171.221 11.6721 174.209 14.9226 174.209 19.1281C174.209 23.3336 171.221 26.5841 167.137 26.5841C163.054 26.5841 160.065 23.3336 160.065 19.1281C160.065 14.9226 163.054 11.6721 167.137 11.6721ZM167.137 13.4081C164.033 13.4081 161.873 15.8325 161.873 19.1281C161.873 22.4237 164.033 24.8481 167.137 24.8481C170.242 24.8481 172.401 22.4237 172.401 19.1281C172.401 15.8325 170.242 13.4081 167.137 13.4081Z" fill="#8D9299"/>
<path d="M183.987 12.0081V13.7441H180.723V26.2481H178.915V13.7441H175.651V12.0081H178.915V7.83211H180.723V12.0081H183.987Z" fill="#8D9299"/>
<path fill-rule="evenodd" clip-rule="evenodd" d="M199.195 19.9841H187.304C187.641 22.8327 189.628 24.8481 192.363 24.8481C194.64 24.8481 196.286 23.7137 196.813 22.3224L196.911 22.0641H198.854L198.669 22.5957C197.86 24.918 195.432 26.5841 192.363 26.5841C188.343 26.5841 185.435 23.3246 185.435 19.1281C185.435 14.9316 188.343 11.6721 192.363 11.6721C196.383 11.6721 199.291 14.9316 199.291 19.1281V19.1482C199.291 19.2791 199.291 19.5029 199.259 19.6625L199.195 19.9841ZM187.304 18.2481H197.423C197.086 15.4036 195.1 13.4081 192.363 13.4081C189.626 13.4081 187.641 15.4036 187.304 18.2481Z" fill="#8D9299"/>
<path fill-rule="evenodd" clip-rule="evenodd" d="M204.644 26.2481H202.836V5.91211H204.644V14.1376C205.68 12.8485 207.54 11.6721 210.028 11.6721C214.049 11.6721 216.956 14.9565 216.956 19.1281C216.956 23.2997 214.049 26.5841 210.028 26.5841C207.54 26.5841 205.68 25.4077 204.644 24.1186V26.2481ZM209.956 24.8481C213.053 24.8481 215.148 22.408 215.148 19.1281C215.148 15.8482 213.053 13.4081 209.956 13.4081C206.846 13.4081 204.62 15.8624 204.62 19.1281C204.62 22.3938 206.846 24.8481 209.956 24.8481Z" fill="#8D9299"/>
<path fill-rule="evenodd" clip-rule="evenodd" d="M226.924 11.6721C231.007 11.6721 233.996 14.9226 233.996 19.1281C233.996 23.3336 231.007 26.5841 226.924 26.5841C222.84 26.5841 219.852 23.3336 219.852 19.1281C219.852 14.9226 222.84 11.6721 226.924 11.6721ZM226.924 13.4081C223.819 13.4081 221.66 15.8325 221.66 19.1281C221.66 22.4237 223.819 24.8481 226.924 24.8481C230.028 24.8481 232.188 22.4237 232.188 19.1281C232.188 15.8325 230.028 13.4081 226.924 13.4081Z" fill="#8D9299"/>
<path fill-rule="evenodd" clip-rule="evenodd" d="M243.956 11.6721C248.04 11.6721 251.028 14.9226 251.028 19.1281C251.028 23.3336 248.04 26.5841 243.956 26.5841C239.872 26.5841 236.884 23.3336 236.884 19.1281C236.884 14.9226 239.872 11.6721 243.956 11.6721ZM243.956 13.4081C240.852 13.4081 238.692 15.8325 238.692 19.1281C238.692 22.4237 240.852 24.8481 243.956 24.8481C247.06 24.8481 249.22 22.4237 249.22 19.1281C249.22 15.8325 247.06 13.4081 243.956 13.4081Z" fill="#8D9299"/>
<path d="M264.902 26.2481L259.304 19.3667L256.205 22.5074V26.2481H254.397V5.91211H256.205V20.0262L264.016 12.1269L264.134 12.0081H266.605L260.566 18.0983L267.206 26.2481H264.902Z" fill="#8D9299"/>
</svg>
